<svg xmlns="http://www.w3.org/2000/svg" viewBox="0 0 48 48" width="50px" height="50px" fill="#3F51B5">
  <path fill="#3F51B5" d="M42,37c0,2.762-2.238,5-5,5H11c-2.761,0-5-2.238-5-5V11c0-2.762,2.239-5,5-5h26c2.762,0,5,2.238,5,5V37z" />
  <path fill="#FFF" d="M34.368,25H31v13h-5V25h-3v-4h3v-2.41c0.002-3.508,1.459-5.59,5.592-5.59H35v4h-2.287C31.104,17,31,17.6,31,18.723V21h4L34.368,25z" />
</svg>6xeDdMa)" d="M24,4C12.954,4,4,12.954,4,24s8.954,20,20,20s20-8.954,20-20S35.046,4,24,4z" />
  <path fill="#fff" d="M26.707,29.301h5.176l0.813-5.258h-5.989v-2.874c0-2.184,0.714-4.121,2.757-4.121h3.283V12.46 c-0.577-0.078-1.797-0.248-4.102-0.248c-4.814,0-7.636,2.542-7.636,8.334v3.498H16.06v5.258h4.948v14.452 C21.988,43.9,22.981,44,24,44c0.921,0,1.82-0.084,2.707-0.204V29.301z" />
</svg>